<?xml version="1.0" encoding="utf-8"?>
<!-- Generator: Adobe Illustrator 26.3.1, SVG Export Plug-In . SVG Version: 6.00 Build 0)  -->
<svg version="1.1" id="Layer_1" xmlns="http://www.w3.org/2000/svg" xmlns:xlink="http://www.w3.org/1999/xlink" x="0px" y="0px"
	 viewBox="0 0 141.7 141.7" style="enable-background:new 0 0 141.7 141.7;" xml:space="preserve">
<g>
	<path d="M42.7,16l3,6c0.1,0.2,0.3,0.5,0.4,0.7c0.1,0.2,0.3,0.4,0.5,0.4c0.2,0.1,0.4,0,0.7-0.1c0.3-0.1,0.5-0.3,0.5-0.5
		c0.1-0.2,0.1-0.4,0-0.7c-0.1-0.2-0.2-0.5-0.3-0.7l-3-6c-0.1-0.2-0.3-0.5-0.4-0.7C44,14.2,43.8,14,43.6,14c-0.2-0.1-0.5,0-0.7,0.1
		c-0.3,0.1-0.4,0.3-0.5,0.5c-0.1,0.2-0.1,0.4,0,0.7C42.5,15.5,42.6,15.7,42.7,16z"/>
	<path d="M82.4,125c-0.1-0.3-0.3-0.4-0.5-0.6c-0.2-0.1-0.5-0.1-0.9-0.1l-1,0.2l0.7,3.7l1-0.2c0.4-0.1,0.6-0.2,0.8-0.4
		c0.2-0.2,0.3-0.4,0.3-0.7c0-0.3,0-0.6-0.1-1.1C82.6,125.5,82.5,125.2,82.4,125z"/>
	<path d="M92.9,121.1c-0.3-0.2-0.8-0.2-1.3,0l-0.9,0.4l1.5,3.6l0.8-0.3c0.4-0.2,0.7-0.4,0.9-0.6s0.2-0.5,0.2-0.8
		c0-0.3-0.1-0.7-0.3-1C93.5,121.7,93.3,121.3,92.9,121.1z"/>
	<path d="M31.1,23.7l4.2,5.2c0.2,0.2,0.3,0.4,0.5,0.6c0.2,0.2,0.4,0.3,0.6,0.3c0.2,0,0.4,0,0.7-0.3c0.3-0.2,0.4-0.4,0.4-0.6
		c0-0.2,0-0.4-0.2-0.7c-0.1-0.2-0.3-0.4-0.4-0.6l-4.2-5.2c-0.2-0.2-0.4-0.4-0.6-0.6c-0.2-0.2-0.4-0.3-0.6-0.3s-0.5,0.1-0.7,0.3
		c-0.2,0.2-0.4,0.4-0.4,0.6c0,0.2,0,0.4,0.2,0.7C30.8,23.2,31,23.4,31.1,23.7z"/>
	<path d="M58.1,18.9c0.5-0.1,0.8-0.3,0.9-0.4c0.2-0.2,0.2-0.4,0.2-0.7c0-0.3-0.1-0.6-0.2-1l-1.4-5.9c-0.1-0.4-0.2-0.7-0.3-1
		c-0.1-0.2-0.3-0.4-0.5-0.4c-0.2-0.1-0.6,0-1,0.1l-0.5,0.1l2.2,9.4L58.1,18.9z"/>
	<path d="M113.3,116.4l-4.1-4.5c-0.3-0.3-0.5-0.5-0.7-0.7c-0.2-0.1-0.4-0.2-0.7-0.1c-0.2,0.1-0.5,0.2-0.9,0.5l-0.3,0.3l6.5,7.2
		l0.4-0.3c0.4-0.3,0.6-0.6,0.6-0.8c0.1-0.2,0-0.5-0.1-0.7C113.8,117,113.6,116.7,113.3,116.4z"/>
	<path d="M70.9,0C31.7,0,0,31.7,0,70.9c0,39.1,31.7,70.9,70.9,70.9c39.1,0,70.9-31.7,70.9-70.9C141.7,31.7,110,0,70.9,0z
		 M121.3,29.2l4.3,5.9l-1.9,1.4l-1.2-1.7l-9.4,6.9l-1.8-2.5l9.4-6.9l-1.2-1.7L121.3,29.2z M113.6,21.5l-3.8,4.2l1.6,1.4l3.8-4.2
		l2.3,2.1l-9.3,10.4l-2.3-2.1l4.1-4.6l-1.6-1.4l-4.1,4.6l-2.3-2.1l9.3-10.4L113.6,21.5z M93.2,22.2c0.1-0.8,0.4-1.6,0.9-2.4l2.3-4.1
		c0.5-0.9,1-1.6,1.6-2.1c0.6-0.5,1.2-0.8,2-0.8c0.7-0.1,1.6,0.2,2.5,0.7c0.9,0.5,1.5,1,1.9,1.6c0.4,0.6,0.5,1.2,0.4,1.9
		c-0.1,0.7-0.3,1.3-0.7,2.1l-0.4,0.8l-2.7-1.5l0.5-1c0.1-0.3,0.3-0.5,0.3-0.8c0.1-0.2,0.1-0.5,0.1-0.7c-0.1-0.2-0.2-0.4-0.5-0.5
		c-0.3-0.2-0.5-0.2-0.8-0.1c-0.2,0.1-0.4,0.2-0.6,0.4c-0.2,0.2-0.3,0.4-0.5,0.7l-3.1,5.7c-0.1,0.3-0.3,0.5-0.3,0.8
		c-0.1,0.3-0.1,0.5,0,0.7c0.1,0.2,0.2,0.4,0.5,0.6c0.3,0.2,0.5,0.2,0.8,0.1c0.2-0.1,0.4-0.2,0.6-0.4c0.2-0.2,0.4-0.4,0.5-0.7
		l0.8-1.4l-1.1-0.6l0.9-1.6l3.5,1.9l-3.5,6.4l-1.8-1l0.4-1.1c-0.3,0.3-0.7,0.4-1.2,0.5c-0.4,0.1-0.9-0.1-1.5-0.4
		c-0.8-0.5-1.4-1-1.7-1.6C93.1,23.6,93.1,22.9,93.2,22.2z M90.1,8.4l2.9,1l-4.4,13.3l-2.9-1L90.1,8.4z M76.6,5.7L78.8,6l1.8,7.1
		l1-6.7l2.5,0.4l-2.1,13.8L80,20.3l-1.8-7.6l-1.1,7.2l-2.6-0.4L76.6,5.7z M55.3,7.4c1.2-0.3,2.1-0.4,2.9-0.2
		c0.7,0.1,1.3,0.5,1.7,1.1c0.4,0.6,0.7,1.4,1,2.4l1.2,4.9c0.2,1,0.3,1.9,0.2,2.6c-0.1,0.7-0.5,1.3-1,1.7c-0.6,0.5-1.5,0.8-2.6,1.1
		l-3.5,0.8L51.9,8.2L55.3,7.4z M39.9,13.7c0.4-0.6,1-1.1,2-1.6c1-0.5,1.8-0.7,2.5-0.6c0.7,0.1,1.3,0.3,1.9,0.8s1,1.2,1.4,2L50,19
		c0.4,0.9,0.7,1.7,0.7,2.4c0.1,0.7-0.1,1.4-0.5,2c-0.4,0.6-1.1,1.1-2,1.6c-0.9,0.5-1.8,0.7-2.5,0.6c-0.7-0.1-1.3-0.3-1.9-0.8
		c-0.5-0.5-1-1.2-1.4-2l-2.3-4.7c-0.4-0.9-0.7-1.7-0.7-2.4C39.4,15,39.5,14.3,39.9,13.7z M28,22c0.2-0.7,0.8-1.3,1.6-2
		c0.8-0.7,1.6-1.1,2.3-1.2c0.7-0.1,1.4,0,2,0.4c0.6,0.4,1.3,0.9,1.9,1.7l3.3,4c0.6,0.7,1,1.5,1.2,2.2c0.2,0.7,0.2,1.4,0,2.1
		c-0.2,0.7-0.8,1.3-1.6,2c-0.8,0.7-1.6,1-2.3,1.1c-0.7,0.1-1.4,0-2-0.4c-0.6-0.4-1.3-0.9-1.9-1.7l-3.3-4c-0.6-0.8-1-1.5-1.2-2.2
		C27.7,23.4,27.7,22.7,28,22z M19.3,30.5c0.6-0.8,1.3-1.4,1.9-1.6c0.6-0.3,1.3-0.3,1.9-0.1c0.6,0.2,1.3,0.5,1.9,1l0.7,0.6l-1.9,2.4
		L23,32c-0.2-0.2-0.5-0.3-0.7-0.5c-0.2-0.1-0.4-0.2-0.7-0.2s-0.4,0.2-0.6,0.4c-0.2,0.3-0.3,0.5-0.2,0.7c0,0.2,0.2,0.4,0.3,0.6
		c0.2,0.2,0.4,0.4,0.6,0.6l5.1,4c0.2,0.2,0.5,0.3,0.7,0.5c0.3,0.1,0.5,0.2,0.7,0.1c0.2,0,0.4-0.2,0.6-0.4c0.2-0.3,0.3-0.5,0.3-0.7
		s-0.1-0.5-0.3-0.7c-0.2-0.2-0.4-0.4-0.6-0.6l-1.3-1l-0.8,1l-1.4-1.1l2.5-3.2L33,36l-1.3,1.6l-1-0.6c0.2,0.4,0.3,0.8,0.3,1.2
		s-0.2,0.9-0.6,1.4c-0.6,0.8-1.2,1.2-1.9,1.4s-1.4,0.2-2.1-0.1c-0.7-0.3-1.5-0.7-2.2-1.3l-3.7-2.9c-0.8-0.6-1.4-1.2-1.8-1.9
		c-0.4-0.6-0.6-1.3-0.5-2.1S18.6,31.3,19.3,30.5z M12,72.5l-4.1,3l1.6-4.8l-4.1-3l5.1,0l1.6-4.8l1.6,4.8l5.1,0l-4.1,3l1.6,4.8
		L12,72.5z M20.1,113.4l5.8-6.2l-7.3,4.4l-1.7-2.1l9.8-10.1l1.7,2l-5.8,5.8l7-4.3l1.3,1.6l-5.6,5.9l6.8-4.4l1.6,2l-11.9,7.5
		L20.1,113.4z M31.1,123.9l3.7-4.8l-1.7-1.3l-3.7,4.8l-2.4-1.9l8.6-11.1l2.4,1.9l-3.5,4.5l1.7,1.3l3.5-4.5l2.5,1.9l-8.6,11.1
		L31.1,123.9z M38.6,128.7l6.5-12.4l2.7,1.4l-6.5,12.4L38.6,128.7z M56.3,123.5l-2-0.7l-3.9,11l-2.9-1l3.9-11l-2-0.7l0.8-2.2
		l6.9,2.4L56.3,123.5z M65.2,125l-3.2-0.5l-0.6,3.4l2.4,0.4l-0.4,2.1l-2.4-0.4l-0.7,4.1l3.2,0.5l-0.3,2.1l-6.2-1.1l2.3-13.8l6.2,1.1
		L65.2,125z M24.1,70.9c0-25.9,21-46.8,46.8-46.8c25.9,0,46.8,21,46.8,46.8c0,25.9-21,46.8-46.8,46.8C45,117.7,24.1,96.7,24.1,70.9z
		 M85.4,127.9c-0.2,0.6-0.6,1.1-1.2,1.4c-0.6,0.3-1.2,0.6-2,0.7l-1.2,0.2l1.1,5.8l-3,0.6l-2.6-13.8l4.6-0.9c0.8-0.2,1.5-0.1,2.1,0.1
		c0.6,0.2,1.1,0.6,1.4,1.1c0.4,0.5,0.6,1.2,0.8,2.1C85.7,126.5,85.7,127.3,85.4,127.9z M97.5,131.5l-3.8-5.2l-0.8,0.3l2.4,5.8
		l-2.9,1.2L87,120.7l3.6-1.5c0.9-0.4,1.7-0.6,2.4-0.6c0.7-0.1,1.4,0.1,1.9,0.4c0.6,0.3,1,1,1.4,1.9c0.2,0.5,0.4,1,0.5,1.5
		c0.1,0.5,0.1,0.9,0,1.3c-0.1,0.4-0.3,0.8-0.7,1.2l4.4,5.5L97.5,131.5z M104.9,127.7l-7.5-11.8l2.6-1.6l7.5,11.8L104.9,127.7z
		 M116.7,118.1c-0.3,0.7-0.9,1.4-1.8,2.2l-2.7,2.4l-9.4-10.4l2.6-2.4c0.9-0.8,1.7-1.3,2.4-1.6c0.7-0.2,1.4-0.2,2,0.1
		c0.6,0.3,1.3,0.8,2,1.6l3.4,3.8c0.7,0.8,1.2,1.5,1.4,2.2C117,116.8,117,117.4,116.7,118.1z M122,113l-11.2-8.4l3.8-5l1.7,1.3
		l-1.9,2.6l2.8,2.1l1.5-1.9l1.7,1.3l-1.5,1.9l3.3,2.5l1.9-2.6l1.7,1.3L122,113z M129.7,72.5l-4.1,3l1.6-4.8l-4.1-3l5.1,0l1.6-4.8
		l1.6,4.8l5.1,0l-4.1,3l1.6,4.8L129.7,72.5z"/>
	<path d="M97.3,83.7c2.6,0,3,0,4.3,0c5.4,0,9.5-6.2,11.6-11.5c2-5.2-1.2-16.1-11.6-16.1c-4.8,0-7.1-1.8-9.3-4.6
		c-2.1-2.6-5.8-4.8-9.4-4.8c-5.9,0-8.1,3.2-11.9,3.2c-3.8,0-6-3.2-11.9-3.2c-3.6,0-7.3,2.2-9.4,4.8c-2.2,2.7-4.5,4.6-9.3,4.6
		c-10.3,0-13.6,10.9-11.6,16.1c2,5.3,6.1,11.5,11.6,11.5c1.3,0,1.6,0,4.3,0c2.6,0,5.6,0.5,5.6,1.7s-1,2-2.4,2c-2.9,0-5,0.5-5,2.2
		c0,3.5,13.6,5.4,28.3,5.4s28.3-1.9,28.3-5.4c0-1.7-2.1-2.2-5-2.2c-1.4,0-2.4-0.8-2.4-2S94.7,83.7,97.3,83.7z M92.5,66.8
		c1.4-5.1,6.4-8.1,11-6.8c4.7,1.3,7.3,6.5,5.8,11.6c-1.4,5.1-6.4,8.1-11,6.8C93.7,77.1,91,71.9,92.5,66.8z M43.4,78.4
		c-4.7,1.3-9.6-1.7-11-6.8c-1.4-5.1,1.2-10.3,5.8-11.6c4.7-1.3,9.6,1.7,11,6.8C50.7,71.9,48.1,77.1,43.4,78.4z M57.3,51.8
		c4.7-1.3,9.7,2,11.2,7.3c1.5,5.4-1,10.8-5.7,12.1c-4.7,1.3-9.7-2-11.2-7.3C50.1,58.5,52.6,53.1,57.3,51.8z M88.8,78.5
		c0,5.8-4.7,10.6-10.6,10.6l-7.4,0l-7.4,0c-5.8,0-10.6-4.7-10.6-10.6v-0.6c0-1.6,1.3-3,3-3h3.4c5,0,8.1-1.7,11.6-1.7
		S77.4,75,82.4,75h3.4c1.6,0,3,1.3,3,3V78.5z M90.1,63.9c-1.5,5.4-6.5,8.6-11.2,7.3c-4.7-1.3-7.2-6.7-5.7-12.1
		c1.5-5.4,6.5-8.6,11.2-7.3C89.1,53.1,91.6,58.5,90.1,63.9z"/>
</g>
</svg>
